<mxfile host="app.diagrams.net" agent="Mozilla/5.0 (Windows NT 10.0; Win64; x64) AppleWebKit/537.36 (KHTML, like Gecko) Chrome/134.0.0.0 Safari/537.36 OPR/119.0.0.0 (Edition Yx GX)" version="27.1.6">
  <diagram name="варианты использования" id="GuC0F5eTyIVK6mL7W4X_">
    <mxGraphModel dx="1001" dy="572" grid="1" gridSize="10" guides="1" tooltips="1" connect="1" arrows="1" fold="1" page="1" pageScale="1" pageWidth="827" pageHeight="1169" math="0" shadow="0">
      <root>
        <mxCell id="0" />
        <mxCell id="1" parent="0" />
        <mxCell id="8P03YpCllYt4eEfnWvz1-1" value="Пользователь" style="shape=umlActor;verticalLabelPosition=bottom;verticalAlign=top;html=1;" vertex="1" parent="1">
          <mxGeometry x="120" y="210" width="30" height="60" as="geometry" />
        </mxCell>
        <mxCell id="8P03YpCllYt4eEfnWvz1-7" value="Регистрация" style="ellipse;whiteSpace=wrap;html=1;" vertex="1" parent="1">
          <mxGeometry x="220" y="80" width="90" height="60" as="geometry" />
        </mxCell>
        <mxCell id="8P03YpCllYt4eEfnWvz1-8" value="Авторизация" style="ellipse;whiteSpace=wrap;html=1;" vertex="1" parent="1">
          <mxGeometry x="220" y="170" width="90" height="60" as="geometry" />
        </mxCell>
        <mxCell id="8P03YpCllYt4eEfnWvz1-9" value="Заход в дневник" style="ellipse;whiteSpace=wrap;html=1;" vertex="1" parent="1">
          <mxGeometry x="220" y="270" width="90" height="60" as="geometry" />
        </mxCell>
        <mxCell id="8P03YpCllYt4eEfnWvz1-10" value="Просмотр статистики" style="ellipse;whiteSpace=wrap;html=1;" vertex="1" parent="1">
          <mxGeometry x="220" y="380" width="90" height="60" as="geometry" />
        </mxCell>
        <mxCell id="8P03YpCllYt4eEfnWvz1-13" value="" style="endArrow=none;html=1;rounded=0;exitX=0.5;exitY=0.5;exitDx=0;exitDy=0;exitPerimeter=0;entryX=0;entryY=1;entryDx=0;entryDy=0;" edge="1" parent="1" source="8P03YpCllYt4eEfnWvz1-1" target="8P03YpCllYt4eEfnWvz1-7">
          <mxGeometry width="50" height="50" relative="1" as="geometry">
            <mxPoint x="360" y="300" as="sourcePoint" />
            <mxPoint x="410" y="250" as="targetPoint" />
          </mxGeometry>
        </mxCell>
        <mxCell id="8P03YpCllYt4eEfnWvz1-14" value="" style="endArrow=none;html=1;rounded=0;exitX=0.5;exitY=0.5;exitDx=0;exitDy=0;exitPerimeter=0;entryX=0;entryY=1;entryDx=0;entryDy=0;" edge="1" parent="1" source="8P03YpCllYt4eEfnWvz1-1" target="8P03YpCllYt4eEfnWvz1-8">
          <mxGeometry width="50" height="50" relative="1" as="geometry">
            <mxPoint x="540" y="329" as="sourcePoint" />
            <mxPoint x="638" y="210" as="targetPoint" />
          </mxGeometry>
        </mxCell>
        <mxCell id="8P03YpCllYt4eEfnWvz1-15" value="" style="endArrow=none;html=1;rounded=0;exitX=0.5;exitY=0.5;exitDx=0;exitDy=0;exitPerimeter=0;entryX=0;entryY=0.5;entryDx=0;entryDy=0;" edge="1" parent="1" source="8P03YpCllYt4eEfnWvz1-1" target="8P03YpCllYt4eEfnWvz1-9">
          <mxGeometry width="50" height="50" relative="1" as="geometry">
            <mxPoint x="390" y="349" as="sourcePoint" />
            <mxPoint x="488" y="230" as="targetPoint" />
          </mxGeometry>
        </mxCell>
        <mxCell id="8P03YpCllYt4eEfnWvz1-16" value="" style="endArrow=none;html=1;rounded=0;exitX=0.5;exitY=0.5;exitDx=0;exitDy=0;exitPerimeter=0;entryX=0;entryY=0;entryDx=0;entryDy=0;" edge="1" parent="1" source="8P03YpCllYt4eEfnWvz1-1" target="8P03YpCllYt4eEfnWvz1-10">
          <mxGeometry width="50" height="50" relative="1" as="geometry">
            <mxPoint x="190" y="280" as="sourcePoint" />
            <mxPoint x="275" y="340" as="targetPoint" />
          </mxGeometry>
        </mxCell>
        <mxCell id="8P03YpCllYt4eEfnWvz1-17" value="Ввод настроения" style="ellipse;whiteSpace=wrap;html=1;" vertex="1" parent="1">
          <mxGeometry x="430" y="220" width="90" height="60" as="geometry" />
        </mxCell>
        <mxCell id="8P03YpCllYt4eEfnWvz1-18" value="Записи мыслей" style="ellipse;whiteSpace=wrap;html=1;" vertex="1" parent="1">
          <mxGeometry x="430" y="300" width="90" height="60" as="geometry" />
        </mxCell>
        <mxCell id="8P03YpCllYt4eEfnWvz1-19" value="просмотр дневника" style="ellipse;whiteSpace=wrap;html=1;" vertex="1" parent="1">
          <mxGeometry x="369" y="390" width="90" height="60" as="geometry" />
        </mxCell>
        <mxCell id="8P03YpCllYt4eEfnWvz1-20" value="&amp;lt;&amp;lt;include&amp;gt;&amp;gt;" style="html=1;verticalAlign=bottom;labelBackgroundColor=none;endArrow=open;endFill=0;dashed=1;rounded=0;exitX=1;exitY=0.5;exitDx=0;exitDy=0;entryX=0;entryY=0.5;entryDx=0;entryDy=0;" edge="1" parent="1" source="8P03YpCllYt4eEfnWvz1-9" target="8P03YpCllYt4eEfnWvz1-17">
          <mxGeometry width="160" relative="1" as="geometry">
            <mxPoint x="300" y="280" as="sourcePoint" />
            <mxPoint x="460" y="280" as="targetPoint" />
          </mxGeometry>
        </mxCell>
        <mxCell id="8P03YpCllYt4eEfnWvz1-21" value="&amp;lt;&amp;lt;include&amp;gt;&amp;gt;" style="html=1;verticalAlign=bottom;labelBackgroundColor=none;endArrow=open;endFill=0;dashed=1;rounded=0;exitX=1;exitY=0.5;exitDx=0;exitDy=0;entryX=0;entryY=0.5;entryDx=0;entryDy=0;" edge="1" parent="1" source="8P03YpCllYt4eEfnWvz1-9" target="8P03YpCllYt4eEfnWvz1-18">
          <mxGeometry width="160" relative="1" as="geometry">
            <mxPoint x="300" y="280" as="sourcePoint" />
            <mxPoint x="460" y="280" as="targetPoint" />
          </mxGeometry>
        </mxCell>
        <mxCell id="8P03YpCllYt4eEfnWvz1-22" value="&amp;lt;&amp;lt;extend&amp;gt;&amp;gt;" style="html=1;verticalAlign=bottom;labelBackgroundColor=none;endArrow=open;endFill=0;dashed=1;rounded=0;exitX=0;exitY=0;exitDx=0;exitDy=0;entryX=1;entryY=0.5;entryDx=0;entryDy=0;" edge="1" parent="1" source="8P03YpCllYt4eEfnWvz1-19" target="8P03YpCllYt4eEfnWvz1-9">
          <mxGeometry width="160" relative="1" as="geometry">
            <mxPoint x="300" y="280" as="sourcePoint" />
            <mxPoint x="460" y="280" as="targetPoint" />
          </mxGeometry>
        </mxCell>
      </root>
    </mxGraphModel>
  </diagram>
</mxfile>
